<svg xmlns="http://www.w3.org/2000/svg" preserveAspectRatio="xMidYMid meet" overflow="hidden" style="display: block;" width="190" height="27" viewBox="0 0 190 27" fill="none">
<g id="Group">
<path id="Vector" fill-rule="evenodd" clip-rule="evenodd" d="M64.4071 8.95876H59.7912C57.0198 8.95876 55.5351 11.2316 55.1662 13.7078L53.8525 22.5605L70.4987 22.5781C71.3265 22.5781 71.9923 23.2414 71.9923 24.055C71.9923 24.8686 71.3175 25.5231 70.4897 25.5231L52.1159 25.5054C51.666 25.5054 51.2791 25.3285 50.9822 24.9924C50.6852 24.6564 50.5683 24.2584 50.6313 23.8162L52.1969 13.2745C52.7818 9.3213 55.4902 6.00491 59.7912 6.00491H65.9008C66.7286 6.00491 67.3944 6.6682 67.3944 7.47298V19.5093C67.3944 20.323 66.7196 20.9774 65.8918 20.9774C65.0639 20.9774 64.3981 20.3141 64.3981 19.5093V8.94985L64.4071 8.95876ZM43.082 18.0412H45.1695C45.8624 16.6263 46.2133 15.0786 46.2133 13.4956C46.2133 7.66754 41.4084 2.94497 35.4788 2.94497C29.5491 2.94497 24.7443 7.66754 24.7443 13.4956C24.7443 19.3237 29.5581 24.0374 35.4788 24.0462H36.9634C37.7912 24.0462 38.4571 24.7095 38.4571 25.5231C38.4571 26.3367 37.7822 26.9912 36.9544 26.9912H35.4698C27.8846 26.9823 21.739 20.942 21.739 13.4867C21.739 6.03145 27.8846 0 35.4698 0C43.055 0 49.2006 6.04028 49.2006 13.4956C49.2006 15.8745 48.5708 18.1916 47.365 20.2522C47.0861 20.7209 46.6182 20.9863 46.0693 20.9863H41.5884C40.7605 20.9863 40.0947 20.323 40.0947 19.5182V13.4956C40.0947 10.9928 38.0252 8.95876 35.4788 8.95876C32.9324 8.95876 30.8629 10.9839 30.8629 13.4956C30.8629 16.0072 32.9414 18.0324 35.4698 18.0412L36.9994 18.0236C37.8273 18.0236 38.5021 18.6692 38.5111 19.4828C38.5201 20.2964 37.8542 20.9597 37.0265 20.9685L35.4968 20.9863H35.4698C31.2677 20.9685 27.8576 17.6256 27.8576 13.4956C27.8576 9.36556 31.2677 6.01376 35.4698 6.01376C39.6718 6.01376 43.073 9.36556 43.082 13.4867V18.0412ZM7.56725 21.0128V24.0197C7.56725 24.8333 6.89241 25.4878 6.07359 25.4878C5.24578 25.4878 4.57994 24.8245 4.57094 24.0197V21.0128H1.49366C0.674844 21.0216 0 20.3583 0 19.5536C0 18.74 0.674844 18.0767 1.49366 18.0767H12.1921C14.7476 18.0767 16.7901 15.9895 16.7901 13.4867C16.7901 10.9839 14.7296 8.94985 12.1742 8.94985H7.55825V15.0078C7.54925 15.8215 6.87441 16.4759 6.0466 16.4759C5.21879 16.4759 4.55294 15.8127 4.55294 14.999V7.47298C4.57094 6.65935 5.23679 6.00491 6.06459 6.00491H12.1742C16.3762 6.00491 19.7774 9.35673 19.7774 13.4867C19.7774 17.6168 16.3942 21.0128 12.1832 21.0128H7.55825H7.56725Z" fill="white"/>
<path id="Vector_2" fill-rule="evenodd" clip-rule="evenodd" d="M76.5542 6.00493V27H77.463V6.00493H76.5542Z" fill="white"/>
<path id="Vector_3" d="M82.133 13.4509V6.0752C82.241 6.0752 82.376 6.0752 82.5559 6.0752C82.727 6.0752 82.9071 6.0752 83.0954 6.0752C83.2846 6.0752 83.4647 6.0752 83.6448 6.0752C83.8249 6.0752 83.9777 6.0752 84.0942 6.0752C84.6344 6.0752 85.0755 6.1371 85.4349 6.26976C85.7951 6.40242 86.0743 6.57045 86.2899 6.78269C86.4972 6.99495 86.6501 7.24257 86.7401 7.51673C86.8302 7.79089 86.8748 8.07388 86.8748 8.35688C86.8748 8.63988 86.8211 8.9494 86.7038 9.22358C86.5964 9.49775 86.4254 9.74533 86.2089 9.95765C85.9842 10.1699 85.705 10.3467 85.363 10.4706C85.021 10.6032 84.6253 10.6651 84.1669 10.6651C84.0132 10.6651 83.8339 10.6651 83.6266 10.6563C83.4201 10.6563 83.2218 10.6385 83.0326 10.6209V13.4597H82.124L82.133 13.4509ZM84.1842 6.89766C84.0314 6.89766 83.8513 6.89766 83.6357 6.89766C83.4201 6.89766 83.2218 6.90651 83.0417 6.91535V9.76308C83.2309 9.78076 83.411 9.78959 83.5911 9.79843C83.7703 9.80727 83.9504 9.8161 84.1396 9.8161C84.6972 9.8161 85.1292 9.68348 85.444 9.41814C85.7595 9.1528 85.9124 8.79027 85.9124 8.33037C85.9124 7.87048 85.7769 7.53441 85.4985 7.27795C85.2193 7.02148 84.7872 6.88882 84.1842 6.88882V6.89766Z" fill="white"/>
<path id="Vector_4" d="M87.856 9.76372C87.856 9.23304 87.9543 8.72896 88.1434 8.26906C88.3326 7.80923 88.5937 7.40241 88.9357 7.06635C89.2777 6.72145 89.6824 6.45614 90.15 6.26157C90.6176 6.06701 91.1306 5.96973 91.689 5.96973C92.2466 5.96973 92.7414 6.06701 93.209 6.25273C93.6774 6.43845 94.0822 6.69491 94.4242 7.03097C94.7662 7.36704 95.0363 7.76501 95.2247 8.22488C95.4138 8.68478 95.513 9.1977 95.513 9.76372C95.513 10.3297 95.4138 10.8161 95.2247 11.2848C95.0363 11.7447 94.7662 12.1515 94.4242 12.4876C94.0822 12.8236 93.6774 13.089 93.209 13.2747C92.7414 13.4604 92.2375 13.5577 91.689 13.5577C91.1397 13.5577 90.6357 13.4604 90.1682 13.2747C89.6998 13.089 89.295 12.8325 88.953 12.4964C88.6118 12.1603 88.3417 11.7624 88.1525 11.3025C87.9633 10.8427 87.8642 10.3297 87.8642 9.76372H87.856ZM88.8183 9.76372C88.8183 10.1882 88.8902 10.5773 89.034 10.9311C89.1785 11.2936 89.385 11.6032 89.637 11.8685C89.898 12.1338 90.1954 12.3372 90.5457 12.4876C90.8968 12.6379 91.2751 12.7175 91.6708 12.7175C92.1029 12.7175 92.4895 12.6379 92.8406 12.4876C93.1917 12.3372 93.4973 12.125 93.7493 11.8685C94.0012 11.6032 94.1995 11.2936 94.3341 10.9311C94.4688 10.5685 94.5407 10.1794 94.5407 9.76372C94.5407 9.34808 94.4688 8.9412 94.325 8.57866C94.1813 8.21604 93.974 7.90651 93.722 7.6412C93.461 7.38473 93.1644 7.18132 92.8133 7.03097C92.4622 6.88063 92.0847 6.80988 91.689 6.80988C91.2925 6.80988 90.9059 6.88063 90.5548 7.03097C90.2037 7.18132 89.898 7.38473 89.6461 7.6412C89.3941 7.89767 89.1967 8.21604 89.043 8.57866C88.8993 8.9412 88.8274 9.33916 88.8274 9.76372H88.8183Z" fill="white"/>
<path id="Vector_5" d="M102.765 12.7352C102.639 12.859 102.486 12.974 102.306 13.0801C102.135 13.1774 101.937 13.2658 101.739 13.3366C101.533 13.4073 101.316 13.4604 101.092 13.4957C100.867 13.5311 100.632 13.5577 100.389 13.5577C99.8227 13.5577 99.3097 13.4692 98.8421 13.2923C98.3746 13.1155 97.978 12.859 97.6451 12.5318C97.3122 12.2046 97.0512 11.8066 96.8628 11.3379C96.6737 10.8691 96.5836 10.3474 96.5836 9.77253C96.5836 9.24194 96.6646 8.74669 96.8356 8.28679C97.0066 7.82691 97.2494 7.42009 97.5733 7.07519C97.8971 6.73028 98.2845 6.46497 98.7521 6.27041C99.2197 6.07584 99.7417 5.97856 100.327 5.97856C100.812 5.97856 101.244 6.04046 101.632 6.16428C102.018 6.28809 102.342 6.46497 102.612 6.6949L102.199 7.36703C101.947 7.18131 101.676 7.04865 101.38 6.96022C101.082 6.87178 100.74 6.81872 100.345 6.81872C99.9491 6.81872 99.5617 6.88947 99.2197 7.03096C98.8785 7.17247 98.5811 7.37588 98.3382 7.64119C98.0954 7.89766 97.8971 8.21602 97.7624 8.57864C97.627 8.94125 97.5551 9.33922 97.5551 9.77253C97.5551 10.2059 97.627 10.6216 97.7715 10.9841C97.9153 11.3467 98.1135 11.6562 98.3746 11.9127C98.6348 12.1692 98.9413 12.3726 99.3006 12.5141C99.6608 12.6556 100.056 12.7263 100.489 12.7263C100.858 12.7263 101.2 12.6645 101.533 12.5494C101.866 12.4345 102.153 12.2753 102.414 12.0719L102.783 12.744L102.765 12.7352Z" fill="white"/>
<path id="Vector_6" d="M109.514 12.7352C109.387 12.859 109.234 12.974 109.054 13.0801C108.883 13.1774 108.686 13.2658 108.488 13.3366C108.281 13.4073 108.065 13.4604 107.84 13.4957C107.615 13.5311 107.381 13.5577 107.138 13.5577C106.571 13.5577 106.058 13.4692 105.59 13.2923C105.122 13.1155 104.726 12.859 104.393 12.5318C104.061 12.2046 103.799 11.8066 103.611 11.3379C103.422 10.8691 103.332 10.3474 103.332 9.77253C103.332 9.24194 103.413 8.74669 103.584 8.28679C103.755 7.82691 103.998 7.42009 104.322 7.07519C104.645 6.73028 105.033 6.46497 105.5 6.27041C105.968 6.07584 106.49 5.97856 107.075 5.97856C107.561 5.97856 107.993 6.04046 108.379 6.16428C108.767 6.28809 109.091 6.46497 109.361 6.6949L108.947 7.36703C108.695 7.18131 108.425 7.04865 108.127 6.96022C107.831 6.87178 107.489 6.81872 107.093 6.81872C106.697 6.81872 106.31 6.88947 105.968 7.03096C105.626 7.17247 105.329 7.37588 105.087 7.64119C104.844 7.89766 104.645 8.21602 104.511 8.57864C104.375 8.94125 104.303 9.33922 104.303 9.77253C104.303 10.2059 104.375 10.6216 104.52 10.9841C104.664 11.3467 104.862 11.6562 105.122 11.9127C105.383 12.1692 105.69 12.3726 106.049 12.5141C106.409 12.6556 106.805 12.7263 107.237 12.7263C107.606 12.7263 107.948 12.6645 108.281 12.5494C108.614 12.4345 108.901 12.2753 109.162 12.0719L109.532 12.744L109.514 12.7352Z" fill="white"/>
<path id="Vector_7" d="M110.962 13.4509V6.0752H111.871V11.974L116.433 6.0752H117.234V13.4509H116.325V7.54326L111.763 13.4509H110.962Z" fill="white"/>
<path id="Vector_8" d="M119.492 13.4514V6.0757H120.401V11.9833L124.963 6.0757H125.763V13.4602H124.855V7.5526L120.293 13.4602H119.492V13.4514ZM121.553 4.38654C121.634 4.60763 121.769 4.77567 121.958 4.89063C122.147 5.01445 122.399 5.06751 122.704 5.06751C122.984 5.06751 123.227 5.01445 123.424 4.89948C123.622 4.78451 123.757 4.61648 123.811 4.38654H124.666C124.648 4.58111 124.576 4.76683 124.468 4.92601C124.36 5.0852 124.216 5.2267 124.036 5.34166C123.856 5.45663 123.659 5.54507 123.433 5.60698C123.208 5.66889 122.966 5.70426 122.704 5.70426C122.138 5.70426 121.678 5.58045 121.327 5.33283C120.977 5.0852 120.761 4.76683 120.698 4.38654H121.553Z" fill="white"/>
<path id="Vector_9" d="M133.61 12.7352C133.484 12.859 133.331 12.974 133.151 13.0801C132.98 13.1774 132.782 13.2658 132.584 13.3366C132.377 13.4073 132.162 13.4604 131.936 13.4957C131.711 13.5311 131.478 13.5577 131.244 13.5577C130.676 13.5577 130.164 13.4692 129.696 13.2923C129.228 13.1155 128.832 12.859 128.49 12.5318C128.157 12.2046 127.896 11.8066 127.707 11.3379C127.518 10.8691 127.428 10.3474 127.428 9.77253C127.428 9.24194 127.509 8.74669 127.68 8.28679C127.851 7.82691 128.094 7.42009 128.419 7.07519C128.742 6.73028 129.129 6.46497 129.597 6.27041C130.065 6.07584 130.587 5.97856 131.172 5.97856C131.658 5.97856 132.09 6.04046 132.476 6.16428C132.854 6.28809 133.187 6.46497 133.457 6.6949L133.043 7.36703C132.791 7.18131 132.521 7.04865 132.224 6.96022C131.927 6.87178 131.586 6.81872 131.189 6.81872C130.794 6.81872 130.407 6.88947 130.065 7.03096C129.723 7.17247 129.426 7.37588 129.183 7.64119C128.94 7.89766 128.742 8.21602 128.607 8.57864C128.472 8.94125 128.4 9.33922 128.4 9.77253C128.4 10.2059 128.472 10.6216 128.616 10.9841C128.76 11.3467 128.958 11.6562 129.219 11.9127C129.48 12.1692 129.786 12.3726 130.146 12.5141C130.506 12.6556 130.902 12.7263 131.334 12.7263C131.702 12.7263 132.044 12.6645 132.377 12.5494C132.71 12.4345 132.998 12.2753 133.259 12.0719L133.628 12.744L133.61 12.7352Z" fill="white"/>
<path id="Vector_10" d="M137.201 9.53317L140.718 13.451H139.548L136.147 9.59503L139.441 6.06641H140.547L137.201 9.53317ZM135.059 6.07525H135.967V13.4598H135.059V6.07525Z" fill="white"/>
<path id="Vector_11" d="M142.059 13.4509V6.0752H142.977V11.974L147.53 6.0752H148.34V13.4509H147.422V7.54326L142.869 13.4509H142.059Z" fill="white"/>
<path id="Vector_12" d="M150.589 13.4514V6.0757H151.498V11.9833L156.059 6.0757H156.861V13.4602H155.952V7.5526L151.39 13.4602H150.589V13.4514ZM152.649 4.38654C152.73 4.60763 152.866 4.77567 153.054 4.89063C153.243 5.01445 153.495 5.06751 153.802 5.06751C154.08 5.06751 154.323 5.01445 154.521 4.89948C154.719 4.78451 154.854 4.61648 154.908 4.38654H155.763C155.745 4.58111 155.673 4.76683 155.565 4.92601C155.457 5.0852 155.313 5.2267 155.133 5.34166C154.953 5.45663 154.755 5.54507 154.53 5.60698C154.305 5.66889 154.062 5.70426 153.802 5.70426C153.234 5.70426 152.776 5.58045 152.425 5.33283C152.074 5.0852 151.858 4.76683 151.795 4.38654H152.649Z" fill="white"/>
<path id="Vector_13" d="M85.3001 18.2002H86.0832L89.3132 25.6201H88.3417L87.3785 23.3826H83.9594L83.0061 25.6201H82.0791L85.3092 18.2002H85.3001ZM84.3104 22.5425H87.0101L85.6603 19.3941L84.3104 22.5425Z" fill="white"/>
<path id="Vector_14" d="M93.1279 23.9307C92.8676 24.4967 92.5975 24.9212 92.3092 25.2042C92.0217 25.4784 91.6706 25.6199 91.2568 25.6199C91.0949 25.6199 90.9239 25.5933 90.7529 25.5492C90.5819 25.4961 90.4472 25.4341 90.3481 25.3546L90.6719 24.5852C90.771 24.6559 90.8693 24.7001 90.9594 24.7355C91.0494 24.7621 91.1486 24.7797 91.2568 24.7797C91.4724 24.7797 91.6525 24.709 91.8053 24.5675C91.9581 24.426 92.0845 24.2491 92.1836 24.0368L92.3092 23.7627L88.9082 18.2354H89.9342L92.7412 22.8606L94.8015 18.2354H95.7284L93.1369 23.9307H93.1279Z" fill="white"/>
<path id="Vector_15" d="M99.1568 21.7021L102.675 25.6199H101.505L98.1044 21.764L101.397 18.2354H102.504L99.1568 21.7021ZM97.0156 18.2354H97.9243V25.6199H97.0156V18.2354Z" fill="white"/>
<path id="Vector_16" d="M104.016 18.2354H104.925V24.7797H108.956V18.2354H109.865V24.7797H110.882V26.9906H110.027V25.6199H104.016V18.2354Z" fill="white"/>
<path id="Vector_17" d="M112.331 25.6199V18.2354H113.239V24.143L117.801 18.2354H118.61V25.6199H117.693V19.7123L113.14 25.6199H112.331Z" fill="white"/>
<path id="Vector_18" d="M120.266 21.9327C120.266 21.3932 120.365 20.8979 120.554 20.4381C120.743 19.9694 121.004 19.5714 121.346 19.2265C121.688 18.8904 122.093 18.6163 122.561 18.4217C123.028 18.2271 123.541 18.1298 124.1 18.1298C124.657 18.1298 125.152 18.2271 125.62 18.4129C126.088 18.5986 126.493 18.855 126.835 19.1911C127.177 19.5271 127.446 19.9251 127.635 20.385C127.825 20.8537 127.924 21.3667 127.924 21.9238C127.924 22.4809 127.825 22.9762 127.635 23.4449C127.446 23.9048 127.177 24.3116 126.835 24.6477C126.493 24.9838 126.088 25.2491 125.62 25.4348C125.152 25.6205 124.648 25.7177 124.1 25.7177C123.55 25.7177 123.046 25.6205 122.579 25.4348C122.111 25.2491 121.706 24.9926 121.364 24.6566C121.022 24.3205 120.752 23.9225 120.563 23.4626C120.374 22.9939 120.275 22.4809 120.275 21.9238L120.266 21.9327ZM121.238 21.9327C121.238 22.3571 121.31 22.7463 121.463 23.1001C121.607 23.4626 121.814 23.7722 122.066 24.0374C122.327 24.3028 122.624 24.5062 122.975 24.6566C123.326 24.8069 123.703 24.8865 124.1 24.8865C124.531 24.8865 124.918 24.8069 125.269 24.6566C125.62 24.5062 125.926 24.2939 126.178 24.0374C126.43 23.7722 126.628 23.4626 126.763 23.1001C126.898 22.7374 126.97 22.3483 126.97 21.9327C126.97 21.517 126.898 21.1102 126.754 20.7476C126.609 20.385 126.403 20.0755 126.151 19.819C125.89 19.5626 125.593 19.3502 125.242 19.2088C124.891 19.0584 124.514 18.9877 124.117 18.9877C123.721 18.9877 123.335 19.0584 122.984 19.2088C122.633 19.3591 122.327 19.5626 122.075 19.819C121.823 20.0755 121.625 20.385 121.472 20.7476C121.328 21.1102 121.247 21.5081 121.247 21.9327H121.238Z" fill="white"/>
<path id="Vector_19" d="M134.636 22.2769H130.506V25.6199H129.588V18.2354H130.506V21.4368H134.636V18.2354H135.544V25.6199H134.636V22.2769Z" fill="white"/>
<path id="Vector_20" d="M142.842 22.2769H138.712V25.6199H137.803V18.2354H138.712V21.4368H142.842V18.2354H143.751V25.6199H142.842V22.2769Z" fill="white"/>
<path id="Vector_21" d="M151.903 18.2354H152.812V25.6199H151.903V18.2354ZM147.854 21.7728C147.602 21.7728 147.296 21.7905 146.918 21.8348V24.7621C147.062 24.7621 147.206 24.7797 147.35 24.7797C147.494 24.7797 147.647 24.7886 147.818 24.7886C148.439 24.7886 148.915 24.6559 149.24 24.3995C149.564 24.143 149.726 23.745 149.726 23.2144C149.726 22.7457 149.564 22.383 149.24 22.1355C148.915 21.8878 148.457 21.764 147.845 21.764L147.854 21.7728ZM146.918 20.9769C147.125 20.9592 147.314 20.9504 147.485 20.9416C147.655 20.9327 147.8 20.9238 147.917 20.9238C148.862 20.9238 149.564 21.1272 150.013 21.5429C150.463 21.9497 150.697 22.5069 150.697 23.2056C150.697 23.9838 150.436 24.5852 149.906 25.0097C149.384 25.4341 148.646 25.6376 147.71 25.6376C147.386 25.6376 147.08 25.6376 146.783 25.6287C146.486 25.6287 146.226 25.6199 146 25.6199V18.2354H146.909V20.9769H146.918Z" fill="white"/>
<path id="Vector_22" d="M155.07 25.6206V18.2361H155.979V24.1437L160.541 18.2361H161.341V25.6206H160.433V19.713L155.871 25.6206H155.07ZM157.131 16.5557C157.212 16.7769 157.347 16.9448 157.536 17.0599C157.725 17.1837 157.977 17.2367 158.282 17.2367C158.561 17.2367 158.805 17.1837 159.002 17.0687C159.2 16.9537 159.335 16.7857 159.389 16.5469H160.244C160.226 16.7414 160.154 16.9272 160.046 17.0864C159.938 17.2455 159.794 17.3871 159.614 17.502C159.443 17.617 159.236 17.7054 159.011 17.7674C158.786 17.8292 158.544 17.8646 158.282 17.8646C157.716 17.8646 157.256 17.7408 156.905 17.4932C156.555 17.2455 156.339 16.9272 156.276 16.5469H157.131V16.5557Z" fill="white"/>
<path id="Vector_23" d="M165.049 24.7797H165.849C165.93 24.6913 166.029 24.5144 166.147 24.2668C166.263 24.0192 166.389 23.6831 166.515 23.2674C166.641 22.8518 166.759 22.3477 166.857 21.7552C166.965 21.1715 167.037 20.4905 167.082 19.7123L167.154 18.2354H171.572V24.7709H172.589V26.9818H171.734V25.611H165.895V26.9818H165.04V24.7709L165.049 24.7797ZM167.946 20.4021C167.901 21.0299 167.838 21.6048 167.739 22.1089C167.649 22.613 167.55 23.0552 167.442 23.4178C167.334 23.7804 167.226 24.0811 167.127 24.311C167.019 24.5409 166.938 24.7001 166.866 24.7797H170.673V19.0844H168.045L167.946 20.4021Z" fill="white"/>
<path id="Vector_24" d="M173.363 21.9327C173.363 21.3932 173.462 20.8979 173.651 20.4381C173.84 19.9694 174.101 19.5714 174.442 19.2265C174.784 18.8904 175.189 18.6163 175.657 18.4217C176.125 18.2271 176.638 18.1298 177.196 18.1298C177.754 18.1298 178.249 18.2271 178.716 18.4129C179.185 18.5986 179.59 18.855 179.932 19.1911C180.274 19.5271 180.543 19.9251 180.732 20.385C180.921 20.8537 181.02 21.3667 181.02 21.9238C181.02 22.4809 180.921 22.9762 180.732 23.4449C180.543 23.9048 180.274 24.3116 179.932 24.6477C179.59 24.9838 179.185 25.2491 178.716 25.4348C178.249 25.6205 177.745 25.7177 177.196 25.7177C176.647 25.7177 176.143 25.6205 175.676 25.4348C175.207 25.2491 174.802 24.9926 174.46 24.6566C174.118 24.3205 173.849 23.9225 173.66 23.4626C173.471 22.9939 173.372 22.4809 173.372 21.9238L173.363 21.9327ZM174.326 21.9327C174.326 22.3571 174.398 22.7463 174.551 23.1001C174.694 23.4626 174.902 23.7722 175.154 24.0374C175.415 24.3028 175.711 24.5062 176.062 24.6566C176.413 24.8069 176.791 24.8865 177.187 24.8865C177.619 24.8865 178.006 24.8069 178.357 24.6566C178.707 24.5062 179.014 24.2939 179.266 24.0374C179.518 23.7722 179.715 23.4626 179.851 23.1001C179.985 22.7374 180.057 22.3483 180.057 21.9327C180.057 21.517 179.985 21.1102 179.842 20.7476C179.697 20.385 179.491 20.0755 179.239 19.819C178.978 19.5626 178.681 19.3502 178.33 19.2088C177.979 19.0584 177.601 18.9877 177.205 18.9877C176.809 18.9877 176.422 19.0584 176.071 19.2088C175.72 19.3591 175.415 19.5626 175.163 19.819C174.911 20.0755 174.712 20.385 174.56 20.7476C174.416 21.1102 174.335 21.5081 174.335 21.9327H174.326Z" fill="white"/>
<path id="Vector_25" d="M182.685 18.2354H183.603L186.428 22.0293L189.127 18.2354H190V25.6199H189.091V19.6503L186.428 23.3205H186.293L183.594 19.6857V25.6199H182.685V18.2354Z" fill="white"/>
</g>
</svg>