<svg width="378" height="39" viewBox="0 0 378 39" fill="none" xmlns="http://www.w3.org/2000/svg">
<mask id="path-1-inside-1_1607_3736" fill="white">
<path d="M187.378 0C191.15 1.61927e-05 194.496 0.655851 197.415 1.96769C200.367 3.27969 202.745 5.11695 204.549 7.47855C206.386 9.80728 207.468 12.5295 207.796 15.6454H200.023C199.695 13.8087 198.973 12.2342 197.858 10.9223C196.743 9.61031 195.283 8.60983 193.479 7.92103C191.708 7.19945 189.658 6.83832 187.329 6.8383C184.64 6.8383 182.31 7.34671 180.342 8.36351C178.374 9.3475 176.865 10.7746 175.816 12.6441C174.766 14.4808 174.242 16.6621 174.241 19.1875C174.241 21.7131 174.766 23.9115 175.816 25.7811C176.865 27.6178 178.374 29.0449 180.342 30.0617C182.31 31.0457 184.64 31.5377 187.329 31.5377C189.658 31.5377 191.708 31.193 193.479 30.5042C195.283 29.8154 196.743 28.8149 197.858 27.5029C198.973 26.191 199.695 24.6001 200.023 22.7306H207.796C207.468 25.8465 206.386 28.5851 204.549 30.9467C202.745 33.2755 200.367 35.0964 197.415 36.4084C194.496 37.7202 191.15 38.376 187.378 38.376C183.18 38.376 179.507 37.5719 176.358 35.9648C173.209 34.3576 170.749 32.1112 168.978 29.2248C167.239 26.3384 166.37 22.9923 166.37 19.1875C166.37 15.3829 167.239 12.0375 168.978 9.15125C170.749 6.26486 173.209 4.01848 176.358 2.41128C179.507 0.804105 183.18 0 187.378 0Z"/>
<path fill-rule="evenodd" clip-rule="evenodd" d="M241.84 0C246.104 1.75483e-05 249.843 0.804099 253.057 2.41128C256.272 4.01848 258.765 6.26487 260.536 9.15125C262.34 12.0375 263.242 15.3829 263.242 19.1875C263.242 22.9923 262.34 26.3384 260.536 29.2248C258.765 32.1112 256.272 34.3576 253.057 35.9648C249.843 37.5719 246.104 38.376 241.84 38.376C237.576 38.376 233.837 37.5719 230.623 35.9648C227.408 34.3576 224.899 32.1111 223.095 29.2248C221.324 26.3384 220.438 22.9923 220.438 19.1875C220.438 15.3829 221.324 12.0375 223.095 9.15125C224.899 6.26491 227.408 4.01846 230.623 2.41128C233.837 0.804143 237.576 0 241.84 0ZM241.84 6.93775C239.085 6.93775 236.69 7.42868 234.656 8.41267C232.623 9.39665 231.049 10.8074 229.933 12.6441C228.818 14.4808 228.261 16.6621 228.261 19.1875C228.261 21.7131 228.818 23.8951 229.933 25.7319C231.048 27.5685 232.623 28.9783 234.656 29.9623C236.69 30.9463 239.085 31.4383 241.84 31.4383C244.628 31.4383 247.023 30.9462 249.024 29.9623C251.057 28.9783 252.632 27.5685 253.747 25.7319C254.862 23.8951 255.419 21.7131 255.419 19.1875C255.419 16.6621 254.862 14.4808 253.747 12.6441C252.632 10.8074 251.057 9.39667 249.024 8.41267C247.023 7.42869 244.628 6.93776 241.84 6.93775Z"/>
<path d="M17.4868 30.5198L27.9946 0.737464H36.2609L46.7362 30.4796L56.0875 0.737464H64.2063L52.1521 37.6375H42.2623L32.102 9.35015L21.9429 37.6375H12.0542L0 0.737464H8.16685L17.4868 30.5198Z"/>
<path d="M109.03 7.23273H84.1837V16.137H107.75V22.2379H84.1837V31.1433H109.275V37.6375H76.361V0.737464H109.03V7.23273Z"/>
<path d="M132.321 30.7992H156.625V37.6375H124.597V0.737464H132.321V30.7992Z"/>
<path d="M303.637 30.3142L317.268 0.737464H329.126V37.6375H321.795V7.75342L307.625 37.6375H299.557L285.436 7.85287V37.6375H278.056V0.737464H289.963L303.637 30.3142Z"/>
<path d="M377.256 7.23273H352.41V16.137H375.977V22.2379H352.41V31.1433H377.502V37.6375H344.588V0.737464H377.256V7.23273Z"/>
</mask>
<path d="M187.378 0C191.15 1.61927e-05 194.496 0.655851 197.415 1.96769C200.367 3.27969 202.745 5.11695 204.549 7.47855C206.386 9.80728 207.468 12.5295 207.796 15.6454H200.023C199.695 13.8087 198.973 12.2342 197.858 10.9223C196.743 9.61031 195.283 8.60983 193.479 7.92103C191.708 7.19945 189.658 6.83832 187.329 6.8383C184.64 6.8383 182.31 7.34671 180.342 8.36351C178.374 9.3475 176.865 10.7746 175.816 12.6441C174.766 14.4808 174.242 16.6621 174.241 19.1875C174.241 21.7131 174.766 23.9115 175.816 25.7811C176.865 27.6178 178.374 29.0449 180.342 30.0617C182.31 31.0457 184.64 31.5377 187.329 31.5377C189.658 31.5377 191.708 31.193 193.479 30.5042C195.283 29.8154 196.743 28.8149 197.858 27.5029C198.973 26.191 199.695 24.6001 200.023 22.7306H207.796C207.468 25.8465 206.386 28.5851 204.549 30.9467C202.745 33.2755 200.367 35.0964 197.415 36.4084C194.496 37.7202 191.15 38.376 187.378 38.376C183.18 38.376 179.507 37.5719 176.358 35.9648C173.209 34.3576 170.749 32.1112 168.978 29.2248C167.239 26.3384 166.37 22.9923 166.37 19.1875C166.37 15.3829 167.239 12.0375 168.978 9.15125C170.749 6.26486 173.209 4.01848 176.358 2.41128C179.507 0.804105 183.18 0 187.378 0Z" stroke="white" stroke-width="2" mask="url(#path-1-inside-1_1607_3736)"/>
<path fill-rule="evenodd" clip-rule="evenodd" d="M241.84 0C246.104 1.75483e-05 249.843 0.804099 253.057 2.41128C256.272 4.01848 258.765 6.26487 260.536 9.15125C262.34 12.0375 263.242 15.3829 263.242 19.1875C263.242 22.9923 262.34 26.3384 260.536 29.2248C258.765 32.1112 256.272 34.3576 253.057 35.9648C249.843 37.5719 246.104 38.376 241.84 38.376C237.576 38.376 233.837 37.5719 230.623 35.9648C227.408 34.3576 224.899 32.1111 223.095 29.2248C221.324 26.3384 220.438 22.9923 220.438 19.1875C220.438 15.3829 221.324 12.0375 223.095 9.15125C224.899 6.26491 227.408 4.01846 230.623 2.41128C233.837 0.804143 237.576 0 241.84 0ZM241.84 6.93775C239.085 6.93775 236.69 7.42868 234.656 8.41267C232.623 9.39665 231.049 10.8074 229.933 12.6441C228.818 14.4808 228.261 16.6621 228.261 19.1875C228.261 21.7131 228.818 23.8951 229.933 25.7319C231.048 27.5685 232.623 28.9783 234.656 29.9623C236.69 30.9463 239.085 31.4383 241.84 31.4383C244.628 31.4383 247.023 30.9462 249.024 29.9623C251.057 28.9783 252.632 27.5685 253.747 25.7319C254.862 23.8951 255.419 21.7131 255.419 19.1875C255.419 16.6621 254.862 14.4808 253.747 12.6441C252.632 10.8074 251.057 9.39667 249.024 8.41267C247.023 7.42869 244.628 6.93776 241.84 6.93775Z" stroke="white" stroke-width="2" mask="url(#path-1-inside-1_1607_3736)"/>
<path d="M17.4868 30.5198L27.9946 0.737464H36.2609L46.7362 30.4796L56.0875 0.737464H64.2063L52.1521 37.6375H42.2623L32.102 9.35015L21.9429 37.6375H12.0542L0 0.737464H8.16685L17.4868 30.5198Z" stroke="white" stroke-width="2" mask="url(#path-1-inside-1_1607_3736)"/>
<path d="M109.03 7.23273H84.1837V16.137H107.75V22.2379H84.1837V31.1433H109.275V37.6375H76.361V0.737464H109.03V7.23273Z" stroke="white" stroke-width="2" mask="url(#path-1-inside-1_1607_3736)"/>
<path d="M132.321 30.7992H156.625V37.6375H124.597V0.737464H132.321V30.7992Z" stroke="white" stroke-width="2" mask="url(#path-1-inside-1_1607_3736)"/>
<path d="M303.637 30.3142L317.268 0.737464H329.126V37.6375H321.795V7.75342L307.625 37.6375H299.557L285.436 7.85287V37.6375H278.056V0.737464H289.963L303.637 30.3142Z" stroke="white" stroke-width="2" mask="url(#path-1-inside-1_1607_3736)"/>
<path d="M377.256 7.23273H352.41V16.137H375.977V22.2379H352.41V31.1433H377.502V37.6375H344.588V0.737464H377.256V7.23273Z" stroke="white" stroke-width="2" mask="url(#path-1-inside-1_1607_3736)"/>
</svg>

