<svg width="536" height="289" viewBox="0 0 536 289" fill="none" xmlns="http://www.w3.org/2000/svg">
<path d="M383.389 214.211C390.076 214.211 395.988 215.133 401.127 216.977C406.265 218.821 410.453 221.301 413.691 224.416C416.929 227.532 418.9 231.093 419.604 235.099H401.549C400.493 232.874 398.593 231.03 395.848 229.567C393.173 228.105 389.196 227.373 383.917 227.373C378.356 227.373 373.745 228.295 370.085 230.139C366.495 231.983 363.821 234.654 362.061 238.151C360.371 241.649 359.527 245.877 359.527 250.837C359.527 256.178 360.477 260.693 362.378 264.381C364.348 268.069 367.164 270.867 370.824 272.775C374.555 274.619 379.095 275.541 384.445 275.541C388.316 275.541 391.554 275.064 394.158 274.11C396.763 273.156 398.734 271.853 400.071 270.2C401.408 268.483 402.077 266.575 402.077 264.477C402.077 262.378 401.444 260.566 400.177 259.04C398.98 257.45 397.15 256.21 394.686 255.32C392.223 254.43 389.09 253.985 385.289 253.985C380.221 253.985 375.47 255.034 371.035 257.132C366.601 259.167 362.659 262.029 359.21 265.717L352.347 261.424C354.6 257.482 357.485 253.985 361.005 250.932C364.524 247.817 368.677 245.369 373.464 243.588C378.321 241.744 383.776 240.822 389.829 240.822C396.305 240.822 401.901 241.776 406.617 243.684C411.333 245.591 414.958 248.294 417.492 251.791C420.097 255.288 421.399 259.326 421.399 263.904C421.399 268.737 419.921 273.029 416.964 276.781C414.008 280.532 409.749 283.489 404.189 285.651C398.698 287.75 392.047 288.799 384.233 288.799C374.731 288.799 366.777 287.209 360.371 284.03C354.036 280.85 349.285 276.463 346.118 270.867C342.95 265.208 341.366 258.754 341.366 251.505C341.366 244.256 342.95 237.833 346.118 232.238C349.285 226.642 354.001 222.255 360.266 219.075C366.53 215.832 374.238 214.211 383.389 214.211Z" fill="url(#paint0_linear_1075_2738)"/>
<path d="M332.731 236.638C332.731 263.828 282.765 256.705 278.351 270.651H331.727V285.801H253.067V276.671C253.067 247.474 314.671 253.996 314.671 238.043C314.671 232.224 310.959 229.715 295.407 229.715C279.856 229.715 272.732 232.023 272.732 243.16H254.672C254.672 219.782 271.127 214.565 294.404 214.565C318.584 214.565 332.731 219.181 332.731 236.638Z" fill="url(#paint1_linear_1075_2738)"/>
<path d="M209.692 286.804C181.8 286.804 168.556 273.962 168.556 250.584C168.556 227.307 181.8 214.565 209.692 214.565C237.484 214.565 250.828 227.408 250.828 250.584C250.828 273.861 237.484 286.804 209.692 286.804ZM209.692 271.654C225.544 271.654 232.768 263.728 232.768 250.584C232.768 237.541 225.544 229.715 209.692 229.715C193.839 229.715 186.615 237.441 186.615 250.584C186.615 263.828 193.839 271.654 209.692 271.654Z" fill="url(#paint2_linear_1075_2738)"/>
<path d="M165.572 236.638C165.572 263.828 115.607 256.705 111.192 270.651H164.569V285.801H85.9084V276.671C85.9084 247.474 147.512 253.996 147.512 238.043C147.512 232.224 143.8 229.715 128.248 229.715C112.697 229.715 105.573 232.023 105.573 243.16H87.5137C87.5137 219.782 103.968 214.565 127.245 214.565C151.425 214.565 165.572 219.181 165.572 236.638Z" fill="url(#paint3_linear_1075_2738)"/>
<path d="M517.537 125.764H535.728V196.508H517.537V168.817H459.932V196.508H441.74V125.764H459.932V153.455H517.537V125.764Z" fill="white"/>
<path d="M346.48 161.036C346.48 137.59 359.82 124.755 390.947 124.755C419.144 124.755 433.292 135.468 435.111 155.882H416.617C414.899 144.462 406.107 140.015 390.947 140.015C372.453 140.015 364.671 146.584 364.671 161.036C364.671 175.589 372.554 182.259 390.947 182.259C406.005 182.259 414.899 177.712 416.617 166.19H435.111C433.292 186.706 419.144 197.52 390.947 197.52C359.82 197.52 346.48 184.584 346.48 161.036Z" fill="white"/>
<path d="M341.444 140.216H284.849V154.567H341.444V167.705H284.849V182.056H341.444V196.508H266.658V125.764H341.444V140.216Z" fill="white"/>
<path d="M260.677 125.764V141.025H226.316V196.508H208.125V141.025H173.764V125.764H260.677Z" fill="white"/>
<path d="M348.627 34V49.2604H314.266V104.744H296.075V49.2604H261.714V34H348.627Z" fill="white"/>
<path d="M251.421 66.3399C257.485 70.0792 261.426 75.9408 261.426 84.1268C261.426 96.0522 254.453 104.744 238.384 104.744H173.704V34H235.959C252.027 34 256.979 42.186 256.979 52.5954C256.979 57.5475 254.958 62.3985 251.421 66.3399ZM191.895 47.1381V61.7921H229.39H229.491C234.342 61.7921 238.788 61.7921 238.788 54.4146C238.788 47.1381 234.342 47.1381 229.39 47.1381H191.895ZM233.937 90.6959C238.788 90.6959 243.235 90.6959 243.235 83.2173C243.235 75.7387 238.788 75.7387 233.937 75.7387H191.895V90.6959H233.937Z" fill="white"/>
<path d="M167.068 48.4519H110.474V62.8027H167.068V75.9408H110.474V90.2916H167.068V104.744H92.2824V34H167.068V48.4519Z" fill="white"/>
<path d="M51.341 34C69.6333 34 85.7022 45.319 85.7022 69.3718C85.7022 93.4245 69.6333 104.744 51.341 104.744H0.00146484V34H51.341ZM44.4688 89.4831C58.2133 89.4831 67.511 86.5523 67.511 69.3718C67.511 52.1912 58.2133 49.2604 44.4688 49.2604H18.1926V89.4831H44.4688Z" fill="white"/>
<path d="M37.4908 214.565H58.6812L21.1904 286.286H0L37.4908 214.565Z" fill="url(#paint4_linear_1075_2738)"/>
<path d="M336.519 11.0043V8.09196H345.535V11.0043H336.519ZM343.477 0.436035L349.424 13.5156H345.57L340.582 1.97071H341.629L336.623 13.5156H332.769L338.716 0.436035H343.477Z" fill="white"/>
<path d="M318.202 13.5156V0.436035H321.795V13.5156H318.202ZM323.451 6.83632L328.77 0.436035H332.764L327.445 6.62704L332.938 13.5156H328.666L323.451 6.83632ZM320.225 5.26677H326.939V8.47563H320.225V5.26677Z" fill="white"/>
<path d="M311.666 7.11535L311.962 6.43521C312.974 6.45846 313.805 6.61542 314.456 6.90608C315.119 7.18511 315.613 7.5804 315.938 8.09196C316.264 8.59189 316.427 9.17321 316.427 9.83591C316.427 10.5451 316.264 11.1787 315.938 11.7368C315.613 12.2832 315.125 12.7192 314.473 13.0448C313.834 13.3587 313.032 13.5156 312.067 13.5156H302.405V6.80144V0.436035H311.718C312.927 0.436035 313.869 0.72088 314.543 1.29057C315.218 1.84863 315.555 2.62759 315.555 3.62746C315.555 4.17389 315.427 4.69708 315.171 5.19701C314.915 5.69694 314.503 6.1213 313.933 6.47009C313.375 6.80725 312.619 7.02234 311.666 7.11535ZM305.98 12.6785L304.585 10.9869H311.09C311.613 10.9869 312.02 10.859 312.311 10.6032C312.602 10.3475 312.747 9.99286 312.747 9.53943C312.747 9.08601 312.59 8.72559 312.276 8.45819C311.962 8.17916 311.497 8.03964 310.881 8.03964H304.585V5.56324H310.393C310.811 5.56324 311.16 5.44116 311.439 5.19701C311.73 4.94123 311.875 4.59825 311.875 4.16808C311.875 3.81929 311.753 3.53445 311.509 3.31355C311.265 3.08102 310.916 2.96476 310.462 2.96476H304.603L305.98 1.27313V6.80144V12.6785Z" fill="white"/>
<path d="M288.662 11.0043V8.09196H297.679V11.0043H288.662ZM295.621 0.436035L301.568 13.5156H297.713L292.726 1.97071H293.772L288.767 13.5156H284.913L290.86 0.436035H295.621Z" fill="white"/>
<path d="M278.038 2.02303H281.665V13.5156H278.038V2.02303ZM273.05 0.436035H286.653V3.6449H273.05V0.436035Z" fill="white"/>
<path d="M272.679 8.03937C272.551 9.19038 272.156 10.2019 271.493 11.0738C270.831 11.9342 269.959 12.6027 268.877 13.0794C267.808 13.5561 266.575 13.7944 265.18 13.7944C263.657 13.7944 262.326 13.5096 261.187 12.9399C260.047 12.3702 259.158 11.5738 258.518 10.5507C257.891 9.52754 257.577 8.33585 257.577 6.97557C257.577 5.61529 257.891 4.42359 258.518 3.40048C259.158 2.37736 260.047 1.58096 261.187 1.01127C262.326 0.441583 263.657 0.156738 265.18 0.156738C266.575 0.156738 267.808 0.395078 268.877 0.871756C269.959 1.34844 270.831 2.02276 271.493 2.89473C272.156 3.75508 272.551 4.76076 272.679 5.91176H269.052C268.936 5.3537 268.709 4.88283 268.372 4.49916C268.035 4.10387 267.593 3.80159 267.046 3.59231C266.512 3.38304 265.89 3.2784 265.18 3.2784C264.366 3.2784 263.663 3.42954 263.07 3.73183C262.477 4.02249 262.024 4.44685 261.71 5.00491C261.396 5.55135 261.239 6.20823 261.239 6.97557C261.239 7.7429 261.396 8.4056 261.71 8.96367C262.024 9.5101 262.477 9.93446 263.07 10.2367C263.663 10.5274 264.366 10.6727 265.18 10.6727C265.89 10.6727 266.512 10.5739 267.046 10.3763C267.593 10.1786 268.035 9.88215 268.372 9.48685C268.709 9.09156 268.936 8.60906 269.052 8.03937H272.679Z" fill="white"/>
<path d="M238.396 13.5156V0.436035H242.006V12.2949L240.384 10.673H245.477C246.07 10.673 246.529 10.5219 246.855 10.2196C247.192 9.91729 247.36 9.51037 247.36 8.99881C247.36 8.47563 247.192 8.06871 246.855 7.77805C246.529 7.48739 246.07 7.34206 245.477 7.34206H240.071V4.48199H245.704C246.808 4.48199 247.756 4.67382 248.546 5.05749C249.348 5.42953 249.959 5.95272 250.377 6.62704C250.807 7.30137 251.023 8.09196 251.023 8.99881C251.023 9.90566 250.807 10.7021 250.377 11.388C249.959 12.0623 249.348 12.5855 248.546 12.9576C247.756 13.3296 246.808 13.5156 245.704 13.5156H238.396ZM252.104 0.436035H255.714V13.5156H252.104V0.436035Z" fill="white"/>
<path d="M231.86 7.11535L232.156 6.43521C233.168 6.45846 233.999 6.61542 234.65 6.90608C235.313 7.18511 235.807 7.5804 236.132 8.09196C236.458 8.59189 236.621 9.17321 236.621 9.83591C236.621 10.5451 236.458 11.1787 236.132 11.7368C235.807 12.2832 235.318 12.7192 234.667 13.0448C234.028 13.3587 233.226 13.5156 232.261 13.5156H222.599V6.80144V0.436035H231.912C233.121 0.436035 234.063 0.72088 234.737 1.29057C235.411 1.84863 235.749 2.62759 235.749 3.62746C235.749 4.17389 235.621 4.69708 235.365 5.19701C235.109 5.69694 234.696 6.1213 234.127 6.47009C233.569 6.80725 232.813 7.02234 231.86 7.11535ZM226.174 12.6785L224.779 10.9869H231.284C231.807 10.9869 232.214 10.859 232.505 10.6032C232.796 10.3475 232.941 9.99286 232.941 9.53943C232.941 9.08601 232.784 8.72559 232.47 8.45819C232.156 8.17916 231.691 8.03964 231.075 8.03964H224.779V5.56324H230.587C231.005 5.56324 231.354 5.44116 231.633 5.19701C231.924 4.94123 232.069 4.59825 232.069 4.16808C232.069 3.81929 231.947 3.53445 231.703 3.31355C231.459 3.08102 231.11 2.96476 230.656 2.96476H224.797L226.174 1.27313V6.80144V12.6785Z" fill="white"/>
<path d="M216.505 6.01624H221.092V8.82399H216.505V6.01624Z" fill="white"/>
<path d="M214.337 0.436035V13.5156H210.902V1.72656L211.669 1.81375L206.611 13.5156H202.949L197.874 1.84863L198.659 1.76143V13.5156H195.223V0.436035H200.804L205.495 11.667H204.1L208.756 0.436035H214.337Z" fill="white"/>
<path d="M182.557 13.5156L184.912 9.41736H184.964L190.074 0.436035H193.998L186.481 13.5156H182.557ZM184.859 11.7542L178.319 0.436035H182.313L187.423 9.33016L184.859 11.7542Z" fill="white"/>
<path d="M173.153 0.436035C174.246 0.436035 175.188 0.622056 175.978 0.994098C176.781 1.36614 177.391 1.89514 177.809 2.58109C178.228 3.25542 178.437 4.046 178.437 4.95286C178.437 5.84808 178.228 6.63867 177.809 7.32462C177.391 7.99895 176.781 8.52213 175.978 8.89417C175.188 9.26622 174.246 9.45224 173.153 9.45224H167.485V6.55729H172.926C173.508 6.55729 173.961 6.41777 174.287 6.13874C174.612 5.84808 174.775 5.45279 174.775 4.95286C174.775 4.4413 174.612 4.046 174.287 3.76697C173.961 3.47631 173.508 3.33099 172.926 3.33099H167.799L169.421 1.6568V13.5156H165.811V0.436035H173.153Z" fill="white"/>
<path d="M156.17 13.7944C154.624 13.7944 153.263 13.5096 152.089 12.9399C150.927 12.3702 150.02 11.5738 149.369 10.5507C148.729 9.52754 148.409 8.33585 148.409 6.97557C148.409 5.61529 148.729 4.42359 149.369 3.40048C150.02 2.37736 150.927 1.58096 152.089 1.01127C153.263 0.441583 154.624 0.156738 156.17 0.156738C157.728 0.156738 159.088 0.441583 160.251 1.01127C161.413 1.58096 162.32 2.37736 162.971 3.40048C163.622 4.42359 163.948 5.61529 163.948 6.97557C163.948 8.33585 163.622 9.52754 162.971 10.5507C162.32 11.5738 161.413 12.3702 160.251 12.9399C159.088 13.5096 157.728 13.7944 156.17 13.7944ZM156.17 10.5681C157.019 10.5681 157.751 10.4228 158.367 10.1321C158.984 9.84145 159.454 9.42872 159.78 8.89391C160.117 8.3591 160.286 7.71965 160.286 6.97557C160.286 6.23148 160.117 5.59204 159.78 5.05723C159.454 4.52242 158.984 4.10968 158.367 3.81902C157.751 3.52837 157.019 3.38304 156.17 3.38304C155.333 3.38304 154.606 3.52837 153.99 3.81902C153.374 4.10968 152.897 4.52242 152.56 5.05723C152.223 5.59204 152.054 6.23148 152.054 6.97557C152.054 7.71965 152.223 8.3591 152.56 8.89391C152.897 9.42872 153.374 9.84145 153.99 10.1321C154.606 10.4228 155.333 10.5681 156.17 10.5681Z" fill="white"/>
<path d="M137.098 11.5275V8.66741H141.388C141.865 8.66741 142.272 8.59184 142.609 8.4407C142.946 8.27793 143.208 8.04541 143.394 7.74312C143.58 7.44084 143.673 7.08042 143.673 6.66187C143.673 6.24333 143.58 5.88291 143.394 5.58063C143.208 5.27834 142.946 5.05163 142.609 4.90049C142.272 4.73772 141.865 4.65634 141.388 4.65634H137.115V1.79626H141.597C142.783 1.79626 143.801 1.99972 144.649 2.40665C145.51 2.81357 146.166 3.37744 146.62 4.09827C147.085 4.81911 147.317 5.67364 147.317 6.66187C147.317 7.63848 147.085 8.49302 146.62 9.22548C146.166 9.94631 145.51 10.5102 144.649 10.9171C143.801 11.324 142.783 11.5275 141.597 11.5275H137.098ZM131.849 11.5275C130.663 11.5275 129.64 11.324 128.779 10.9171C127.931 10.5102 127.274 9.94631 126.809 9.22548C126.355 8.49302 126.129 7.63848 126.129 6.66187C126.129 5.67364 126.355 4.81911 126.809 4.09827C127.274 3.37744 127.931 2.81357 128.779 2.40665C129.64 1.99972 130.663 1.79626 131.849 1.79626H136.313V4.65634H132.041C131.575 4.65634 131.174 4.73772 130.837 4.90049C130.5 5.05163 130.238 5.27834 130.052 5.58063C129.866 5.88291 129.773 6.24333 129.773 6.66187C129.773 7.08042 129.866 7.44084 130.052 7.74312C130.238 8.04541 130.5 8.27793 130.837 8.4407C131.174 8.59184 131.575 8.66741 132.041 8.66741H136.331V11.5275H131.849ZM134.918 13.9516V0H138.528V13.9516H134.918Z" fill="white"/>
<defs>
<linearGradient id="paint0_linear_1075_2738" x1="381.383" y1="214.211" x2="381.383" y2="288.799" gradientUnits="userSpaceOnUse">
<stop stop-color="white"/>
<stop offset="1" stop-color="white" stop-opacity="0"/>
</linearGradient>
<linearGradient id="paint1_linear_1075_2738" x1="292.899" y1="214.565" x2="292.899" y2="285.801" gradientUnits="userSpaceOnUse">
<stop stop-color="white"/>
<stop offset="1" stop-color="white" stop-opacity="0"/>
</linearGradient>
<linearGradient id="paint2_linear_1075_2738" x1="209.692" y1="214.565" x2="209.692" y2="286.804" gradientUnits="userSpaceOnUse">
<stop stop-color="white"/>
<stop offset="1" stop-color="white" stop-opacity="0"/>
</linearGradient>
<linearGradient id="paint3_linear_1075_2738" x1="125.74" y1="214.565" x2="125.74" y2="285.801" gradientUnits="userSpaceOnUse">
<stop stop-color="white"/>
<stop offset="1" stop-color="white" stop-opacity="0"/>
</linearGradient>
<linearGradient id="paint4_linear_1075_2738" x1="29.3406" y1="214.565" x2="29.3406" y2="286.286" gradientUnits="userSpaceOnUse">
<stop stop-color="#35A0F7"/>
<stop offset="1" stop-color="#35A0F7" stop-opacity="0"/>
</linearGradient>
</defs>
</svg>
