<svg width="56" height="56" viewBox="0 0 56 56" fill="none" xmlns="http://www.w3.org/2000/svg">
<foreignObject x="0" y="0" width="0" height="0"><div xmlns="http://www.w3.org/1999/xhtml" style="backdrop-filter:blur(7px);clip-path:url(#bgblur_0_437_78_clip_path);height:100%;width:100%"></div></foreignObject><path data-figma-bg-blur-radius="14" d="M42.1401 14.4202C32.3049 16.6421 30.502 18.4449 28.2801 28.2801C26.0583 18.4449 24.2554 16.6421 14.4202 14.4202C24.2554 12.1983 26.0583 10.3954 28.2801 0.560181C30.502 10.3954 32.3049 12.1983 42.1401 14.4202Z" fill="url(#paint0_radial_437_78)"/>
<foreignObject x="0" y="0" width="0" height="0"><div xmlns="http://www.w3.org/1999/xhtml" style="backdrop-filter:blur(7px);clip-path:url(#bgblur_1_437_78_clip_path);height:100%;width:100%"></div></foreignObject><path data-figma-bg-blur-radius="14" d="M42.1401 42.1402C32.3049 44.362 30.502 46.1649 28.2801 56.0001C26.0583 46.1649 24.2554 44.362 14.4202 42.1402C24.2554 39.9183 26.0583 38.1154 28.2801 28.2802C30.502 38.1154 32.3049 39.9183 42.1401 42.1402Z" fill="url(#paint1_radial_437_78)"/>
<foreignObject x="0" y="0" width="0" height="0"><div xmlns="http://www.w3.org/1999/xhtml" style="backdrop-filter:blur(7px);clip-path:url(#bgblur_2_437_78_clip_path);height:100%;width:100%"></div></foreignObject><path data-figma-bg-blur-radius="14" d="M28.2803 28.2801C18.445 30.502 16.6421 32.3049 14.4203 42.1401C12.1984 32.3049 10.3955 30.502 0.560303 28.2801C10.3955 26.0582 12.1984 24.2554 14.4203 14.4202C16.6421 24.2554 18.445 26.0582 28.2803 28.2801Z" fill="url(#paint2_radial_437_78)"/>
<foreignObject x="0" y="0" width="0" height="0"><div xmlns="http://www.w3.org/1999/xhtml" style="backdrop-filter:blur(7px);clip-path:url(#bgblur_3_437_78_clip_path);height:100%;width:100%"></div></foreignObject><path data-figma-bg-blur-radius="14" d="M56 28.2801C46.1648 30.502 44.3619 32.3049 42.14 42.1401C39.9182 32.3049 38.1153 30.502 28.28 28.2801C38.1153 26.0582 39.9182 24.2554 42.14 14.4202C44.3619 24.2554 46.1648 26.0582 56 28.2801Z" fill="url(#paint3_radial_437_78)"/>
<defs>
<clipPath id="bgblur_0_437_78_clip_path" transform="translate(0 0)"><path d="M42.1401 14.4202C32.3049 16.6421 30.502 18.4449 28.2801 28.2801C26.0583 18.4449 24.2554 16.6421 14.4202 14.4202C24.2554 12.1983 26.0583 10.3954 28.2801 0.560181C30.502 10.3954 32.3049 12.1983 42.1401 14.4202Z"/>
</clipPath><clipPath id="bgblur_1_437_78_clip_path" transform="translate(0 0)"><path d="M42.1401 42.1402C32.3049 44.362 30.502 46.1649 28.2801 56.0001C26.0583 46.1649 24.2554 44.362 14.4202 42.1402C24.2554 39.9183 26.0583 38.1154 28.2801 28.2802C30.502 38.1154 32.3049 39.9183 42.1401 42.1402Z"/>
</clipPath><clipPath id="bgblur_2_437_78_clip_path" transform="translate(0 0)"><path d="M28.2803 28.2801C18.445 30.502 16.6421 32.3049 14.4203 42.1401C12.1984 32.3049 10.3955 30.502 0.560303 28.2801C10.3955 26.0582 12.1984 24.2554 14.4203 14.4202C16.6421 24.2554 18.445 26.0582 28.2803 28.2801Z"/>
</clipPath><clipPath id="bgblur_3_437_78_clip_path" transform="translate(0 0)"><path d="M56 28.2801C46.1648 30.502 44.3619 32.3049 42.14 42.1401C39.9182 32.3049 38.1153 30.502 28.28 28.2801C38.1153 26.0582 39.9182 24.2554 42.14 14.4202C44.3619 24.2554 46.1648 26.0582 56 28.2801Z"/>
</clipPath><radialGradient id="paint0_radial_437_78" cx="0" cy="0" r="1" gradientTransform="matrix(-14.0235 19.4044 -19.4044 -3.72916 42.3037 8.87575)" gradientUnits="userSpaceOnUse">
<stop stop-color="#38A6FF"/>
<stop offset="1" stop-color="#38A6FF" stop-opacity="0.2"/>
</radialGradient>
<radialGradient id="paint1_radial_437_78" cx="0" cy="0" r="1" gradientTransform="matrix(-14.0235 19.4044 -19.4044 -3.72916 42.3037 36.5957)" gradientUnits="userSpaceOnUse">
<stop stop-color="#38A6FF"/>
<stop offset="1" stop-color="#38A6FF" stop-opacity="0.2"/>
</radialGradient>
<radialGradient id="paint2_radial_437_78" cx="0" cy="0" r="1" gradientTransform="matrix(-14.0235 19.4044 -19.4044 -3.72916 28.4438 22.7357)" gradientUnits="userSpaceOnUse">
<stop stop-color="#38A6FF"/>
<stop offset="1" stop-color="#38A6FF" stop-opacity="0.2"/>
</radialGradient>
<radialGradient id="paint3_radial_437_78" cx="0" cy="0" r="1" gradientTransform="matrix(-14.0235 19.4044 -19.4044 -3.72916 56.1635 22.7357)" gradientUnits="userSpaceOnUse">
<stop stop-color="#38A6FF"/>
<stop offset="1" stop-color="#38A6FF" stop-opacity="0.2"/>
</radialGradient>
</defs>
</svg>
